<?xml version="1.0" encoding="UTF-8"?>
<svg id="Layer_2" data-name="Layer 2" xmlns="http://www.w3.org/2000/svg" viewBox="0 0 578.05 446.84">
  <defs>
    <style>
      .cls-1 {
        fill: #c42035;
      }
    </style>
  </defs>
  <g id="Layer_1-2" data-name="Layer 1">
    <path class="cls-1" d="m196.66,296.67l-53.89-87.11,4.11-4,17.78,15.22c-3.79,7.6-1.25,16.84,5.89,21.44,2.7,1.67,5.82,2.56,9,2.56,3.46.03,6.84-1.02,9.67-3l110.89,94.67c1.3,1.29,3.06,2.01,4.89,2,1.99-.01,3.88-.86,5.22-2.33,2.75-2.81,2.75-7.3,0-10.11l-112.33-95.56,55.56-87.56c3.55-5.48,3.55-12.52,0-18-.83-1.15-1.76-2.23-2.78-3.22l-64.56-76.33c-3.09-4.58-8.25-7.32-13.78-7.33h0l-85.22.78c-5.09.12-9.68,3.08-11.89,7.67l-26.33,56.56-7-6c-2.71-2.76-7.14-2.81-9.9-.1-.03.03-.07.07-.1.1-2.79,2.76-2.82,7.26-.05,10.06.02.02.04.04.05.05l10.33,8.89-2.67,5.89c-4.04,7.97-1.17,17.72,6.56,22.22,2.49,1.48,5.33,2.25,8.22,2.22,5.72-.02,11.04-2.95,14.11-7.78l8.67,7.44-39.22,42.33c-5.16,4.77-8.21,11.42-8.44,18.44l-2.89,95.33L.66,414.11c-3.19,14.02,5.55,27.97,19.56,31.22,1.97.44,3.98.66,6,.67,12.19,0,22.75-8.45,25.44-20.33l27.11-117,2.56-84.78,15.56,11.11,44.44,72.11-48.67,101.67c-6.6,12.82-1.55,28.57,11.27,35.16,12.82,6.6,28.57,1.55,35.16-11.27.28-.55.54-1.1.78-1.67l57.56-119c2.53-4.88,2.23-10.74-.78-15.33Z"/>
    <circle class="cls-1" cx="260.77" cy="47.78" r="47.78"/>
    <path class="cls-1" d="m571.1,415.67c-16-23.33-92.67-168.44-112.44-188.89s-37.33-23.11-49.33-18.22c-13.18,5.09-24.71,13.7-33.33,24.89-14.11,19.22-33.33,76.78-49.33,102.56-3.17,3.53-6.14,7.24-8.89,11.11l-.89.67c-11.78,7.11-44.44,13.22-57.67,26.67-8.09,8.87-15.24,18.55-21.33,28.89l-2,2.78c-10.32,16.44-25.62,29.17-43.67,36.33v3.56h368.22c2.56.22,30.22-1.78,10.67-30.33Z"/>
  </g>
</svg>