<?xml version="1.0" encoding="UTF-8"?>
<svg id="Layer_2" data-name="Layer 2" xmlns="http://www.w3.org/2000/svg" viewBox="0 0 236.51 236.51">
  <defs>
    <style>
      .cls-1 {
        fill: #c42035;
      }

      .cls-2 {
        fill: #f0e1e4;
      }
    </style>
  </defs>
  <g id="Layer_2-2" data-name="Layer 2">
    <circle class="cls-2" cx="118.25" cy="118.25" r="118.25"/>
    <g id="Layer_1-2" data-name="Layer 1-2">
      <g>
        <path class="cls-1" d="m89.64,105.14c-2.16-.74-4.29-1.69-6.52-2.19-10.23-2.28-19.61,4.52-19.92,14.87-.34,10.99-.29,22.01,0,33.01.23,8.45,6.35,14.38,14.59,14.91,8.96.59,16.08-4.48,17.67-12.78.47-2.43.56-4.97.56-7.46.04-23.85.02-47.69.02-71.54v-6.35c1.9-.14,3.46-.26,5.87-.44v6.14c0,26.01-.13,52.03.11,78.04.04,4.94-1.78,10.95,4.89,14,.85.39.58,3.2.86,5.1-5.88.72-8.4-2.71-10.15-5.76-5.25,2.3-10.11,5.64-15.38,6.5-12.98,2.12-24.26-8.02-24.62-21.44-.28-10.33-.28-20.68,0-31.01.38-14.44,13.26-24.34,27.07-21.33,4.44.97,6.44,3.02,4.96,7.73h0Z"/>
        <path class="cls-1" d="m179.08,170.29h-5.51v-6.6c0-15.17.11-30.33-.07-45.5-.08-6.78-2.67-12.48-9.48-15.05-6.76-2.54-13.15-1.63-18.62,3.37-4.08,3.72-4.51,8.75-4.54,13.79-.08,15-.03,30-.03,45v5.22h-5.83v-103.09c1.74-.08,3.46-.16,5.65-.27v36.68c2.29-1.65,4.05-2.77,5.65-4.08,10.97-8.97,29.37-1.51,32.02,13.58.54,3.1.71,6.29.73,9.44.07,15.64.03,31.29.03,47.49v.02Z"/>
        <path class="cls-1" d="m128.1,195.98c-6.88,1.48-10.06-.66-11.51-6.21-.79-3.03-1.15-6.25-1.16-9.38-.09-46-.08-92-.09-137.99,0-.65.13-1.3.24-2.33h5.7v5.46c0,44,0,88,0,132,0,2.83-.11,5.72.43,8.46.35,1.82,1.65,3.5,2.71,5.12,1.11,1.7,2.44,3.25,3.67,4.87h0Z"/>
      </g>
    </g>
  </g>
</svg>